<?xml version="1.0" encoding="utf-8"?>
<!-- Generator: Adobe Illustrator 26.4.1, SVG Export Plug-In . SVG Version: 6.00 Build 0)  -->
<svg version="1.1" id="Layer_1" xmlns="http://www.w3.org/2000/svg" xmlns:xlink="http://www.w3.org/1999/xlink" x="0px" y="0px"
	 viewBox="0 0 1872.8 263.7" style="enable-background:new 0 0 1872.8 263.7;" xml:space="preserve">
<style type="text/css">
	.st0{fill:#FFFFFF;}
	.st1{stroke:#FFFFFF;stroke-width:18;stroke-miterlimit:10;}
	.st2{fill:none;stroke:#FFFFFF;stroke-width:36;stroke-miterlimit:10;}
	.st3{stroke:#FFFFFF;stroke-width:11;stroke-miterlimit:10;}
	.st4{fill:none;stroke:#FFFFFF;stroke-width:25;stroke-miterlimit:10;}
	.st5{stroke:#FFFFFF;stroke-width:9;stroke-miterlimit:10;}
	.st6{fill:none;stroke:#FFFFFF;stroke-width:19;stroke-miterlimit:10;}
</style>
<g>
	<path class="st0" d="M559.5,147.3c0,5.1-0.6,9.6-1.9,13.7c-1.3,4.1-3,7.6-5.1,10.7c-2.1,3.1-4.6,5.7-7.4,7.9
		c-2.8,2.2-5.8,4-8.8,5.3c-3,1.4-6.1,2.4-9.3,3.1c-3.1,0.7-6.1,1-8.9,1h-99.3v-25.7h99.3c4.9,0,8.8-1.5,11.5-4.4
		c2.7-2.9,4.1-6.8,4.1-11.7c0-2.4-0.4-4.6-1.1-6.5c-0.7-2-1.8-3.7-3.1-5.1c-1.4-1.5-3-2.6-4.9-3.4c-1.9-0.8-4.1-1.2-6.5-1.2H459
		c-4.2,0-8.6-0.7-13.5-2.2c-4.8-1.5-9.3-3.9-13.4-7.2c-4.1-3.3-7.6-7.6-10.3-13c-2.7-5.3-4.1-11.9-4.1-19.6s1.4-14.2,4.1-19.5
		c2.7-5.3,6.2-9.6,10.3-13c4.1-3.3,8.6-5.7,13.4-7.2c4.8-1.5,9.3-2.2,13.5-2.2h87.6v25.7H459c-4.9,0-8.7,1.5-11.4,4.5
		c-2.7,3-4.1,6.9-4.1,11.8c0,4.9,1.4,8.9,4.1,11.7c2.7,2.9,6.5,4.3,11.4,4.3h59.2h0.2c2.8,0.1,5.7,0.4,8.8,1.1
		c3.1,0.7,6.2,1.8,9.3,3.2c3.1,1.5,6,3.3,8.8,5.5c2.8,2.2,5.2,4.9,7.4,8c2.1,3.1,3.8,6.7,5.1,10.7
		C558.9,137.7,559.5,142.3,559.5,147.3z"/>
	<path class="st0" d="M695,176.1c0,1.8-0.3,3.6-1,5.1c-0.7,1.6-1.6,3-2.7,4.1c-1.2,1.2-2.5,2.1-4.1,2.7c-1.6,0.7-3.2,1-5,1h-58.2
		c-3.2,0-6.5-0.4-10.1-1.1c-3.6-0.7-7.1-1.9-10.6-3.5c-3.5-1.6-6.9-3.7-10.1-6.1c-3.3-2.5-6.1-5.5-8.6-9c-2.4-3.5-4.4-7.6-5.9-12.2
		c-1.5-4.6-2.2-9.8-2.2-15.6V82.1h25.7v59.4c0,3.4,0.6,6.4,1.7,9.1c1.2,2.7,2.7,5,4.7,6.9c2,1.9,4.3,3.4,7,4.4
		c2.7,1,5.6,1.5,8.7,1.5h45V82.1H695V176.1z"/>
	<path class="st0" d="M837.1,153c0,2.4-0.3,5-0.8,7.7c-0.6,2.7-1.4,5.4-2.6,8.1s-2.7,5.2-4.6,7.7c-1.9,2.4-4.2,4.6-6.8,6.5
		c-2.7,1.9-5.8,3.4-9.3,4.5c-3.5,1.1-7.5,1.7-11.9,1.7h-46.4c-2.4,0-5-0.3-7.7-0.8c-2.7-0.6-5.4-1.4-8.1-2.6s-5.2-2.7-7.7-4.6
		c-2.4-1.9-4.6-4.2-6.5-6.8s-3.4-5.8-4.5-9.3c-1.1-3.5-1.7-7.5-1.7-11.9V36.9h25.7V153c0,3.2,1,5.7,3,7.6c2,1.9,4.5,2.8,7.4,2.8
		h46.4c3.2,0,5.8-1,7.6-2.9c1.8-1.9,2.7-4.4,2.7-7.5v-34.8c0-3.2-1-5.8-2.9-7.6c-1.9-1.8-4.4-2.7-7.4-2.7h-46.4V82.1h46.4
		c2.4,0,5,0.3,7.7,0.8c2.7,0.6,5.4,1.4,8.1,2.6c2.7,1.2,5.2,2.7,7.7,4.6c2.4,1.9,4.6,4.2,6.4,6.8c1.8,2.7,3.3,5.8,4.5,9.3
		c1.1,3.5,1.7,7.5,1.7,11.9V153z"/>
	<path class="st0" d="M955.9,107.9H911v81.2h-26v-81.2h-33.5V82.1h33.5V47.2h26v34.9h44.9V107.9z"/>
	<path class="st0" d="M998.9,60.2h-25.7V36.9h25.7V60.2z M998.9,189.1h-25.7v-107h25.7V189.1z"/>
	<path class="st0" d="M1168.1,157.9c0,3.2-0.5,6.6-1.6,10.2c-1.1,3.6-2.9,7-5.3,10.1c-2.5,3.1-5.7,5.7-9.6,7.8
		c-4,2.1-8.8,3.1-14.5,3.1h-97.7c-1.8,0-3.6-0.3-5.1-1c-1.6-0.7-3-1.6-4.1-2.7c-1.2-1.2-2.1-2.5-2.7-4.1c-0.7-1.6-1-3.3-1-5.1v-116
		c0-1.8,0.3-3.5,1-5c0.7-1.6,1.6-3,2.7-4.2c1.2-1.2,2.5-2.1,4.1-2.8c1.6-0.7,3.3-1,5.1-1h86.1c3.2,0,6.6,0.6,10.2,1.7
		c3.6,1.1,7,2.9,10.1,5.4c3.1,2.5,5.7,5.7,7.8,9.6s3.1,8.8,3.1,14.5v4.8c0,4.6-0.8,9.5-2.3,14.7c-1.5,5.2-4,10.2-7.3,14.9
		c2.9,1.8,5.6,3.9,8.2,6.4c2.5,2.5,4.8,5.4,6.7,8.7c1.9,3.3,3.4,7,4.6,11.2c1.1,4.2,1.7,8.7,1.7,13.8V157.9z M1142.3,153
		c0-3.4-0.5-6.4-1.6-9.1c-1.1-2.7-2.5-5-4.5-6.9c-1.9-1.9-4.2-3.4-6.9-4.4c-2.7-1-5.7-1.5-9.1-1.5h-58v-25.9h46.4
		c3.4,0,6.4-0.5,9.1-1.5c2.7-1,5-2.5,6.9-4.4c1.9-1.9,3.4-4.2,4.4-6.9c1-2.7,1.5-5.7,1.5-9.1v-4.8c0-3.7-1.8-5.5-5.3-5.5H1052v90.5
		h84.9c0.5,0,1,0,1.7-0.1c0.7-0.1,1.3-0.3,1.8-0.6c0.5-0.3,1-0.9,1.4-1.7c0.4-0.8,0.6-1.9,0.6-3.3V153z"/>
	<path class="st0" d="M1281.2,107.9h-57.9c-3.5,0-6.1,0.9-7.9,2.6c-1.8,1.7-2.7,4.3-2.7,7.7v71H1187v-71c0-4.4,0.6-8.4,1.7-11.9
		c1.1-3.5,2.6-6.6,4.5-9.3c1.9-2.7,4-4.9,6.5-6.8c2.4-1.9,5-3.4,7.7-4.6c2.7-1.2,5.4-2.1,8.1-2.6c2.7-0.6,5.3-0.8,7.7-0.8h58.1
		V107.9z"/>
	<path class="st0" d="M1414.1,153c0,4.4-0.6,8.4-1.7,11.9c-1.1,3.5-2.6,6.6-4.5,9.3c-1.8,2.7-4,4.9-6.4,6.8c-2.4,1.9-5,3.4-7.7,4.6
		c-2.7,1.2-5.4,2.1-8.1,2.6c-2.7,0.6-5.3,0.8-7.8,0.8h-46.4c-3.6,0-7.5-0.6-11.7-1.9c-4.2-1.3-8.1-3.3-11.7-6.2
		c-3.6-2.9-6.6-6.6-9-11.2c-2.4-4.6-3.6-10.2-3.6-16.9v-34.8c0-6.6,1.2-12.2,3.6-16.8c2.4-4.6,5.4-8.3,9-11.2
		c3.6-2.9,7.5-4.9,11.7-6.2c4.2-1.3,8.1-1.9,11.7-1.9h46.4c6.6,0,12.2,1.2,16.8,3.6c4.6,2.4,8.3,5.4,11.2,9
		c2.8,3.6,4.9,7.5,6.2,11.7c1.3,4.2,1.9,8.1,1.9,11.8V153z M1388.4,118.3c0-3.6-0.9-6.2-2.7-7.9c-1.8-1.7-4.4-2.6-7.7-2.6h-46.2
		c-3.4,0-6,0.9-7.8,2.6c-1.8,1.7-2.7,4.3-2.7,7.7V153c0,3.4,0.9,5.9,2.7,7.7s4.4,2.7,7.8,2.7h46.2c3.5,0,6.1-0.9,7.8-2.7
		c1.7-1.8,2.6-4.4,2.6-7.7V118.3z"/>
	<path class="st0" d="M1612.1,82.1c-4.1,9.2-8.5,18.2-13.3,27.1c-4.8,8.9-9.7,17.3-14.9,25.2c-5.2,7.9-10.5,15.2-15.9,21.9
		c-5.4,6.7-10.8,12.5-16.1,17.3c-5.3,4.8-10.5,8.6-15.5,11.4c-5,2.7-9.8,4.1-14.3,4.1c-1.8,0-3.6-0.3-5.1-1c-1.6-0.7-3-1.6-4.2-2.7
		c-1.2-1.2-2.1-2.5-2.8-4.1c-0.7-1.6-1-3.3-1-5.1v-48l-51.1,57.1c-1.3,1.3-2.8,2.3-4.3,2.9c-1.6,0.6-3.2,0.9-4.8,0.9
		c-1.8,0-3.4-0.3-5-1c-1.6-0.7-2.9-1.6-4.1-2.7c-1.2-1.2-2.1-2.5-2.8-4.1c-0.7-1.6-1-3.3-1-5.1v-94h25.7v61l51.3-57.3
		c1.8-1.8,4-3,6.6-3.5c2.5-0.5,5-0.2,7.5,0.8c2.4,1,4.4,2.6,5.8,4.7c1.4,2.1,2.1,4.5,2.1,7.1V156c5.5-5.3,10.6-11,15-16.9
		c4.5-5.9,8.7-12.1,12.5-18.4c3.9-6.3,7.5-12.7,10.9-19.2c3.4-6.5,6.7-13,9.9-19.4H1612.1z"/>
	<path class="st0" d="M1724.5,153c0,4.4-0.6,8.4-1.7,11.9c-1.1,3.5-2.6,6.6-4.5,9.3c-1.8,2.7-4,4.9-6.4,6.8c-2.4,1.9-5,3.4-7.7,4.6
		s-5.4,2.1-8.1,2.6c-2.7,0.6-5.3,0.8-7.8,0.8h-69.7v-25.7h69.5c3.5,0,6.1-0.9,7.9-2.7c1.8-1.8,2.7-4.4,2.7-7.7
		c-0.3-6.9-3.8-10.3-10.4-10.3h-39.9c-5.7,0-10.5-1-14.4-3c-4-2-7.2-4.5-9.6-7.4c-2.5-3-4.3-6.2-5.3-9.6c-1.1-3.4-1.6-6.6-1.6-9.6
		c0-5.7,1-10.6,3.1-14.5c2-3.9,4.6-7.1,7.7-9.6c3.1-2.4,6.5-4.2,10.1-5.3c3.6-1.1,7-1.6,10.2-1.6h63.2v25.7h-63
		c-1.3,0-2.4,0.1-3.1,0.4c-0.8,0.3-1.3,0.7-1.7,1.2c-0.4,0.5-0.6,1-0.6,1.6c-0.1,0.6-0.1,1.1-0.1,1.6c0.1,1.1,0.3,1.9,0.6,2.5
		c0.3,0.6,0.7,1,1.2,1.3c0.5,0.3,1.1,0.4,1.7,0.4c0.6,0,1.2,0,1.8,0h39.9c6.6,0,12.2,1.2,16.8,3.6c4.6,2.4,8.3,5.4,11.2,9
		c2.8,3.6,4.9,7.5,6.2,11.7C1723.8,145.4,1724.5,149.4,1724.5,153z"/>
	<path class="st0" d="M1857.6,117.5c0,3.6-0.6,7.4-1.9,11.5c-1.3,4.1-3.3,8-6.1,11.5c-2.8,3.5-6.5,6.5-11,8.9
		c-4.5,2.4-10,3.6-16.5,3.6h-46.4v-24.4h46.4c3.5,0,6.2-1.1,8.1-3.2c1.9-2.1,2.9-4.8,2.9-8c0-3.4-1.1-6-3.2-7.9
		c-2.1-1.9-4.7-2.9-7.8-2.9h-46.4c-3.5,0-6.2,1.1-8.1,3.2c-1.9,2.1-2.9,4.8-2.9,8v35.9c0,3.4,1.1,6.1,3.2,8c2.1,1.9,4.8,2.9,8,2.9
		h46.2v24.5h-46.4c-3.6,0-7.4-0.6-11.5-1.9c-4.1-1.3-8-3.3-11.5-6.1c-3.5-2.8-6.5-6.5-8.9-11c-2.4-4.5-3.6-10-3.6-16.5v-36.1
		c0-3.6,0.6-7.4,1.9-11.5c1.3-4.1,3.3-7.9,6.1-11.5c2.8-3.5,6.5-6.5,11-8.9c4.5-2.4,10-3.6,16.5-3.6h46.4c3.6,0,7.4,0.6,11.5,1.9
		c4.1,1.3,8,3.3,11.5,6.1c3.5,2.8,6.5,6.5,8.9,11C1856.4,105.6,1857.6,111.1,1857.6,117.5z"/>
</g>
<rect x="9.3" y="-473.7" style="fill:none;" width="2.3" height="0"/>
<g id="GquIyL.tif">
	
		<image style="overflow:visible;" width="167" height="142" id="Layer_0_00000057827940603274256580000013556060321870724012_" xlink:href="E61CACB5554DFC67.png"  transform="matrix(0.12 0 0 0.12 926.6801 123.21)">
	</image>
</g>
<g id="m8Ocz0.tif">
</g>
<g>
	<g>
		<polygon class="st1" points="153.4,47.1 129.7,47.1 129.7,13.5 145.9,13.5 		"/>
		<polygon class="st1" points="108.1,47.1 131.8,47.1 131.8,13.5 115.6,13.5 		"/>
	</g>
	<g>
		<polygon class="st1" points="108.1,200.1 131.8,200.1 131.8,233.7 115.6,233.7 		"/>
		<polygon class="st1" points="153.4,200.1 129.7,200.1 129.7,233.7 145.9,233.7 		"/>
	</g>
	<circle class="st2" cx="130.7" cy="123.6" r="76.5"/>
	<g>
		<polygon class="st1" points="207.2,146.3 207.2,122.5 240.8,122.5 240.8,138.7 		"/>
		<polygon class="st1" points="207.2,101 207.2,124.7 240.8,124.7 240.8,108.5 		"/>
	</g>
	<g>
		<polygon class="st1" points="54.2,101 54.2,124.7 20.6,124.7 20.6,108.5 		"/>
		<polygon class="st1" points="54.2,146.3 54.2,122.5 20.6,122.5 20.6,138.7 		"/>
	</g>
	<g>
		<polygon class="st1" points="200.8,85.5 184.1,68.8 207.8,45 219.3,56.5 		"/>
		<polygon class="st1" points="168.8,53.5 185.6,70.3 209.3,46.5 197.9,35.1 		"/>
	</g>
	<g>
		<polygon class="st1" points="60.6,161.7 77.4,178.5 53.6,202.2 42.2,190.8 		"/>
		<polygon class="st1" points="92.6,193.7 75.9,177 52.1,200.7 63.6,212.2 		"/>
	</g>
	<g>
		<polygon class="st1" points="168.8,193.7 185.6,177 209.3,200.7 197.9,212.2 		"/>
		<polygon class="st1" points="200.8,161.7 184.1,178.5 207.8,202.2 219.3,190.8 		"/>
	</g>
	<g>
		<polygon class="st1" points="92.6,53.5 75.9,70.3 52.1,46.5 63.6,35.1 		"/>
		<polygon class="st1" points="60.6,85.5 77.4,68.8 53.6,45 42.2,56.5 		"/>
	</g>
</g>
<g>
	<g>
		<polygon class="st3" points="330.5,30.8 317.4,30.8 317.4,12.3 326.3,12.3 		"/>
		<polygon class="st3" points="305.5,30.8 318.6,30.8 318.6,12.3 309.7,12.3 		"/>
	</g>
	<g>
		<polygon class="st3" points="305.5,115.2 318.6,115.2 318.6,133.7 309.7,133.7 		"/>
		<polygon class="st3" points="330.5,115.2 317.4,115.2 317.4,133.7 326.3,133.7 		"/>
	</g>
	<circle class="st4" cx="318" cy="73" r="42.2"/>
	<g>
		<polygon class="st3" points="360.2,85.5 360.2,72.4 378.7,72.4 378.7,81.3 		"/>
		<polygon class="st3" points="360.2,60.5 360.2,73.6 378.7,73.6 378.7,64.7 		"/>
	</g>
	<g>
		<polygon class="st3" points="275.8,60.5 275.8,73.6 257.3,73.6 257.3,64.7 		"/>
		<polygon class="st3" points="275.8,85.5 275.8,72.4 257.3,72.4 257.3,81.3 		"/>
	</g>
	<g>
		<polygon class="st3" points="356.7,52 347.4,42.8 360.5,29.7 366.8,36 		"/>
		<polygon class="st3" points="339,34.4 348.2,43.6 361.3,30.5 355,24.2 		"/>
	</g>
	<g>
		<polygon class="st3" points="279.4,94 288.6,103.2 275.5,116.3 269.2,110 		"/>
		<polygon class="st3" points="297,111.7 287.8,102.4 274.7,115.5 281,121.8 		"/>
	</g>
	<g>
		<polygon class="st3" points="339,111.7 348.2,102.4 361.3,115.5 355,121.8 		"/>
		<polygon class="st3" points="356.7,94 347.4,103.2 360.5,116.3 366.8,110 		"/>
	</g>
	<g>
		<polygon class="st3" points="297,34.4 287.8,43.6 274.7,30.5 281,24.2 		"/>
		<polygon class="st3" points="279.4,52 288.6,42.8 275.5,29.7 269.2,36 		"/>
	</g>
</g>
<g>
	<g>
		<polygon class="st5" points="304.6,166.1 294.1,166.1 294.1,151.1 301.3,151.1 		"/>
		<polygon class="st5" points="284.5,166.1 295,166.1 295,151.1 287.8,151.1 		"/>
	</g>
	<g>
		<polygon class="st5" points="284.5,234.2 295,234.2 295,249.1 287.8,249.1 		"/>
		<polygon class="st5" points="304.6,234.2 294.1,234.2 294.1,249.1 301.3,249.1 		"/>
	</g>
	<circle class="st6" cx="294.6" cy="200.1" r="34.1"/>
	<g>
		<polygon class="st5" points="328.6,210.2 328.6,199.7 343.6,199.7 343.6,206.9 		"/>
		<polygon class="st5" points="328.6,190.1 328.6,200.6 343.6,200.6 343.6,193.4 		"/>
	</g>
	<g>
		<polygon class="st5" points="260.5,190.1 260.5,200.6 245.6,200.6 245.6,193.4 		"/>
		<polygon class="st5" points="260.5,210.2 260.5,199.7 245.6,199.7 245.6,206.9 		"/>
	</g>
	<g>
		<polygon class="st5" points="325.8,183.2 318.3,175.7 328.9,165.2 334,170.3 		"/>
		<polygon class="st5" points="311.5,168.9 319,176.4 329.5,165.8 324.4,160.7 		"/>
	</g>
	<g>
		<polygon class="st5" points="263.3,217.1 270.8,224.6 260.2,235.1 255.1,230 		"/>
		<polygon class="st5" points="277.6,231.3 270.1,223.9 259.6,234.4 264.7,239.5 		"/>
	</g>
	<g>
		<polygon class="st5" points="311.5,231.3 319,223.9 329.5,234.4 324.4,239.5 		"/>
		<polygon class="st5" points="325.8,217.1 318.3,224.6 328.9,235.1 334,230 		"/>
	</g>
	<g>
		<polygon class="st5" points="277.6,168.9 270.1,176.4 259.6,165.8 264.7,160.7 		"/>
		<polygon class="st5" points="263.3,183.2 270.8,175.7 260.2,165.2 255.1,170.3 		"/>
	</g>
</g>
</svg>
